<svg xmlns="http://www.w3.org/2000/svg" width="282" height="514" viewBox="0 0 282 514">
    <path fill="#992A84" fill-opacity=".042" fill-rule="evenodd" d="M279.29 77.488c-1.254-4.69-2.76-9.561-5.735-14.807-2.735-5.09-7.084-10.674-13.144-14.905-28.913-17.878-52.827-1.1-64.813 8.691-13.108 11.037-22.324 22.713-31.203 34.511-.373.58-.759 1.148-1.18 1.717.349-4.074.903-8.015 1.108-12.185.47-10.722.602-21.71-1.361-34.414-1.12-6.443-2.627-13.393-6.662-21.577-4.193-8.014-11.59-18.277-26.492-22.737-10.168-2.853-20.07-2.043-28.793.75-8.662 2.792-15.288 7.216-20.745 11.64C69.367 23.274 62.524 32.969 56.5 42.53c-11.745 19.183-19.383 38.5-26.045 57.9-13.036 38.754-20.722 78.076-25.336 117.676a729.513 729.513 0 0 0-4.638 59.532c-.699 19.897-.77 39.854.699 59.823C2.6 357.418 4.939 377.4 8.999 397.223c4.108 19.824 9.746 39.636 18.817 58.53 9.228 18.603 22.336 37.194 42.033 48.436 19.6 11.58 43.575 11.99 63.043 5.995 19.842-5.802 37.19-15.92 53.176-27.282 15.842-11.568 30.431-24.502 44.02-38.294-15.66 11.362-31.551 22.338-48.441 31.283-16.637 9.09-34.286 16.56-52.08 19.474-17.77 2.913-35.395.568-48.538-9.163-13.312-9.429-22.432-24.732-28.673-41.256-6.3-16.609-10.155-34.607-12.468-52.932-2.35-18.29-3.12-36.965-2.988-55.69a680.82 680.82 0 0 1 10.276-112.03c3.217-18.53 7.18-36.88 11.915-54.902 4.59-18.071 9.878-35.865 16.3-52.92C81.776 99.5 89.233 82.927 98.244 69.437c4.24-6.431 9.084-12.088 13.18-15.219.94 6.43.94 14.916.421 23.499-1.084 17.346-4.035 35.828-7.36 54.31-3.337 18.543-7.301 37.255-11.18 56.354-2 9.573-3.759 19.244-5.397 29.385-.82 5.126-1.579 10.311-2.18 16.053-.254 2.913-.519 5.863-.567 9.477.144 3.916-.422 7.228 2.036 16.028 2.457 8.788 9.348 16.101 18.793 18.616 14.168 3.82 28.793-4.678 32.588-18.942l.265-1.064c1.241-4.545 3.41-10.818 5.578-16.657l7.156-18.023a729.537 729.537 0 0 1 15.878-35.925c11.36-23.559 23.167-47.13 37.082-67.97 6.83-10.286 14.384-20.247 21.805-27.076 3.542-3.41 7.325-5.694 8.481-6.165.169-.06.217-.036.277-.121l-.036-.048c.277-.013.53-.013.807-.037.458.75 1.024 1.753 1.47 3.216 1.29 3.88 2.18 9.259 2.53 14.892.759 11.387-.18 24.115-1.795 36.771-1.53 12.74-4.168 25.542-6.759 38.44-2.71 12.897-5.879 25.77-9.433 38.608-6.999 25.662-15.733 50.974-25.022 76.069-9.432 25.094-20.335 49.596-32.744 73.324-6.313 11.834-13.252 23.27-21.094 34.04-7.952 10.589-16.794 21.154-29.396 26.472 13.614-2.647 24.878-12.293 34.829-21.637 10.023-9.694 18.721-20.537 26.986-31.622 16.577-22.217 30.395-46.224 43.285-70.665 12.939-24.454 24.01-49.838 33.961-75.779 9.89-26.013 18.65-52.594 24.227-80.77 2.735-14.168 4.94-28.552 5.084-44.351-.036-7.942-.446-16.21-2.71-25.433"/>
</svg>
