<?xml version="1.0" encoding="UTF-8"?>
<svg width="24px" height="24px" viewBox="0 0 24 24" version="1.1" xmlns="http://www.w3.org/2000/svg" xmlns:xlink="http://www.w3.org/1999/xlink">
    <!-- Generator: Sketch 57.1 (83088) - https://sketch.com -->
    <title>icons / Location</title>
    <desc>Created with Sketch.</desc>
    <g id="icons-/-Location" stroke="none" stroke-width="1" fill="none" fill-rule="evenodd">
        <path d="M12,2 C15.87,2 19,5.13 19,9 C19,12.3058819 16.9183133,16.3552233 12.7549399,21.1480243 C12.7242519,21.1833517 12.6911221,21.2164816 12.6557946,21.2471696 C12.2388499,21.6093578 11.6072379,21.5649689 11.2450497,21.1480242 L11.2450497,21.1480242 L10.9029267,20.7503402 C6.96764225,16.1308307 5,12.2140507 5,9 C5,5.13 8.13,2 12,2 Z M12,4 C9.24,4 7,6.24 7,9 C7,11.85 9.92,16.21 12,18.88 C14.12,16.19 17,11.88 17,9 C17,6.24 14.76,4 12,4 Z M12,6.5 C13.3807119,6.5 14.5,7.61928813 14.5,9 C14.5,10.3807119 13.3807119,11.5 12,11.5 C10.6192881,11.5 9.5,10.3807119 9.5,9 C9.5,7.61928813 10.6192881,6.5 12,6.5 Z" id="Combined-Shape" fill="#FFF"></path>
    </g>
</svg>