<svg xmlns="http://www.w3.org/2000/svg" xmlns:xlink="http://www.w3.org/1999/xlink" width="100" height="100" viewBox="0 0 100 100">
    <defs>
        <path id="a" d="M44.505 9.89h-5.39a7.429 7.429 0 0 0 .445-2.472A7.408 7.408 0 0 0 32.143 0c-2.596 0-4.846 1.335-6.181 3.338l-1.237 1.657-1.236-1.682C22.154 1.335 19.904 0 17.308 0A7.408 7.408 0 0 0 9.89 7.418c0 .865.173 1.706.445 2.472h-5.39c-2.744 0-4.92 2.2-4.92 4.945L0 42.033c0 2.744 2.2 4.945 4.945 4.945h39.56c2.745 0 4.946-2.2 4.946-4.945V14.835c0-2.744-2.201-4.945-4.946-4.945zM32.143 4.945a2.48 2.48 0 0 1 2.472 2.473 2.48 2.48 0 0 1-2.472 2.472 2.48 2.48 0 0 1-2.473-2.472 2.48 2.48 0 0 1 2.473-2.473zm-14.835 0a2.48 2.48 0 0 1 2.472 2.473 2.48 2.48 0 0 1-2.472 2.472 2.48 2.48 0 0 1-2.473-2.472 2.48 2.48 0 0 1 2.473-2.473zm27.197 37.088H4.945v-4.945h39.56v4.945zm0-12.363H4.945V17.308a2.48 2.48 0 0 1 2.473-2.473h10.087l-3.659 4.995a2.46 2.46 0 0 0 .544 3.461 2.478 2.478 0 0 0 3.437-.544l6.898-9.395 6.899 9.395a2.478 2.478 0 0 0 3.436.544 2.46 2.46 0 0 0 .544-3.461l-3.659-4.995h10.088a2.48 2.48 0 0 1 2.472 2.473V29.67z"/>
    </defs>
    <g fill="none" fill-rule="evenodd">
        <circle cx="50" cy="50" r="50" fill="#D8D8D8" opacity=".423"/>
        <g transform="translate(25.824 25.824)">
            <mask id="b" fill="#fff">
                <use xlink:href="#a"/>
            </mask>
            <path fill="#FFF" d="M-4.945-4.945h59.341v59.341H-4.945z" mask="url(#b)"/>
        </g>
    </g>
</svg>
