<svg xmlns="http://www.w3.org/2000/svg" xmlns:xlink="http://www.w3.org/1999/xlink" width="75" height="135" viewBox="0 0 75 135">
    <defs>
        <path id="a" d="M74.28 20.352c-.334-1.232-.735-2.511-1.526-3.89-.727-1.336-1.884-2.803-3.496-3.914-7.69-4.695-14.05-.289-17.237 2.283-3.486 2.899-5.937 5.965-8.299 9.064-.1.152-.202.302-.314.45.093-1.07.24-2.104.295-3.2.125-2.815.16-5.701-.362-9.038-.298-1.692-.699-3.518-1.772-5.667-1.115-2.105-3.082-4.8-7.046-5.972-2.704-.75-5.338-.537-7.657.197-2.304.733-4.066 1.895-5.518 3.057-2.9 2.39-4.72 4.937-6.321 7.448C11.903 16.21 9.87 21.282 8.1 26.378 4.633 36.556 2.589 46.884 1.362 57.285A189.264 189.264 0 0 0 .128 72.92c-.186 5.225-.205 10.467.186 15.712.378 5.241 1 10.49 2.08 15.696 1.092 5.207 2.591 10.41 5.004 15.373 2.454 4.886 5.94 9.769 11.179 12.721 5.213 3.042 11.589 3.15 16.767 1.575 5.277-1.524 9.89-4.181 14.142-7.166 4.214-3.038 8.094-6.435 11.708-10.058-4.165 2.985-8.392 5.867-12.884 8.217-4.424 2.387-9.118 4.35-13.85 5.114-4.727.766-9.414.15-12.91-2.406-3.54-2.476-5.966-6.496-7.625-10.836-1.676-4.362-2.701-9.09-3.317-13.902-.624-4.804-.83-9.709-.794-14.627.086-9.829 1-19.712 2.733-29.424.855-4.867 1.91-9.686 3.169-14.42 1.22-4.746 2.627-9.42 4.335-13.9 1.698-4.457 3.681-8.81 6.078-12.352 1.128-1.69 2.416-3.175 3.505-3.998.25 1.69.25 3.918.112 6.172-.288 4.556-1.073 9.41-1.958 14.265-.887 4.87-1.941 9.785-2.973 14.8-.532 2.515-1 5.055-1.435 7.719a76.192 76.192 0 0 0-.58 4.216c-.068.765-.138 1.54-.15 2.489.038 1.029-.113 1.898.54 4.21A7.04 7.04 0 0 0 28.19 73c3.768 1.003 7.658-1.229 8.667-4.975l.07-.28c.33-1.193.907-2.84 1.484-4.374l1.903-4.734a190.402 190.402 0 0 1 4.223-9.435c3.021-6.188 6.161-12.38 9.862-17.852 1.817-2.702 3.826-5.318 5.8-7.112.941-.895 1.947-1.495 2.255-1.62.045-.015.058-.009.074-.031l-.01-.013c.074-.003.141-.003.215-.01.121.198.272.461.39.845.343 1.02.58 2.432.673 3.912.202 2.99-.048 6.333-.477 9.657-.407 3.347-1.109 6.709-1.797 10.096a164.233 164.233 0 0 1-2.51 10.14c-1.86 6.74-4.184 13.389-6.654 19.98a171.536 171.536 0 0 1-8.709 19.258c-1.678 3.109-3.524 6.112-5.61 8.94-2.114 2.782-4.466 5.557-7.818 6.954 3.62-.696 6.617-3.23 9.263-5.683 2.666-2.547 4.98-5.394 7.177-8.306 4.409-5.835 8.084-12.14 11.512-18.56 3.442-6.422 6.386-13.09 9.033-19.903 2.63-6.832 4.96-13.813 6.443-21.214.727-3.72 1.314-7.499 1.352-11.648-.01-2.086-.119-4.258-.72-6.68"/>
    </defs>
    <g fill="none" fill-rule="evenodd">
        <mask id="b" fill="#fff">
            <use xlink:href="#a"/>
        </mask>
        <use fill="#000" xlink:href="#a"/>
        <path fill="#FFF" d="M0 0h75v135H0z" mask="url(#b)"/>
    </g>
</svg>
